<svg height='300px' width='300px'  fill="#000000" xmlns="http://www.w3.org/2000/svg" viewBox="0 0 48 48" x="0px" y="0px"><path fill="#000000" fill-rule="evenodd" d="M32.4706,32.6975 L26.8166,32.6975 L26.8166,30.6975 L32.4706,30.6975 L32.4706,25.0435 L34.4706,25.0435 L34.4706,30.6975 L40.1246,30.6975 L40.1246,32.6975 L34.4706,32.6975 L34.4706,38.3515 L32.4706,38.3515 L32.4706,32.6975 Z M34.9316,17.0566 L34.9316,19.8375 L32.9316,19.8375 L32.9316,11 L11.706,11 C10.765,11 10,11.766 10,12.707 L10,31.596 L11.22,30.945 C11.781,30.646 12.451,30.646 13.011,30.946 L15.278,32.153 L17.455,30.945 C18.015,30.647 18.685,30.647 19.244,30.945 L21.51,32.153 L22.361,33.917 C21.8,34.217 21.13,34.217 20.57,33.918 L18.303,32.71 L16.127,33.918 C15.846,34.067 15.54,34.142 15.232,34.142 C14.924,34.142 14.617,34.067 14.336,33.917 L12.07,32.71 L10.796,33.437 C10.201,33.755 9.5,33.737 8.923,33.39 C8.345,33.043 8,32.433 8,31.759 L8,12.707 C8,10.663 9.662,9 11.706,9 L33.931,9 L33.931,10.0005 L33.9312,10.0005 L33.9312,9.0006 C35.1202,9.0006 36.1602,9.4356 36.9362,10.2586 C38.8162,12.2526 38.6202,15.9586 38.6112,16.1156 L38.5562,17.0566 L34.9316,17.0566 Z M34.9316,15.0566 L34.9316,11.217425 C35.1328842,11.3182894 35.3143511,11.4547394 35.4782,11.6276 C36.2632,12.4586 36.5332,13.9776 36.6032,15.0566 L34.9316,15.0566 Z M14.0696,17.3845 L28.8606,17.3845 L28.8606,15.3845 L14.0696,15.3845 L14.0696,17.3845 Z M14.0696,21.8375 L28.8606,21.8375 L28.8606,19.8375 L14.0696,19.8375 L14.0696,21.8375 Z M14.0696,26.2895 L24.5036,26.2895 L24.5036,24.2895 L14.0696,24.2895 L14.0696,26.2895 Z"></path></svg>